<svg xmlns="http://www.w3.org/2000/svg"  viewBox="0 0 50 50" width="32px" height="32px"><path d="M 24 17 L 24 19.453125 L 27.535156 19.453125 C 27.488281 19.558594 27.457031 19.640625 27.417969 19.71875 C 26.441406 21.703125 25.546875 23.699219 24.535156 25.667969 C 24.148438 26.421875 23.996094 27.148438 23.996094 28.015625 L 24 29 C 26.40625 29 28.730469 29 31.125 29 C 31.0625 28.007813 31.0625 26.992188 31 26 L 27.421875 26 C 27.464844 25.894531 27.496094 25.863281 27.527344 25.789063 C 28.40625 23.863281 29.273438 21.933594 30.171875 20.015625 C 30.410156 19.507813 30.554688 19.011719 30.476563 18.441406 C 30.410156 17.96875 30.40625 17.484375 30.375 17 Z M 10.394531 17 C 9.800781 21.007813 9.214844 24.996094 8.625 29 L 14.933594 29 C 15.019531 28.015625 15.105469 27.046875 15.195313 26.046875 L 11.761719 26.046875 C 11.851563 25.316406 11.9375 24.71875 12.027344 24 L 15.285156 24 C 15.363281 23.105469 15.445313 22.230469 15.527344 21.324219 L 12.347656 21.324219 C 12.421875 20.71875 12.492188 20.039063 12.5625 19.441406 L 12.8125 19.441406 C 13.738281 19.441406 14.660156 19.441406 15.582031 19.441406 C 15.679688 19.441406 15.789063 19.476563 15.800781 19.308594 C 15.859375 18.546875 15.929688 17.785156 16 17 Z M 17.394531 17 C 17.105469 21.007813 16.8125 25 16.523438 29 L 23 29 L 23 26.054688 L 19.449219 26.054688 C 19.484375 25.316406 19.519531 24.722656 19.550781 24 L 23 24 L 23 21.328125 L 19.675781 21.328125 C 19.707031 20.71875 19.734375 20.035156 19.761719 19.433594 L 23 19.433594 L 23 17 Z M 34.367188 17 C 33.644531 17.011719 32.925781 17.003906 32.203125 17.003906 C 32.140625 17.003906 32.078125 17.015625 32 17.023438 C 32.019531 17.351563 32.042969 17.660156 32.066406 17.96875 C 32.195313 19.648438 32.3125 21.324219 32.453125 23 C 32.519531 23.78125 32.570313 24.566406 32.730469 25.328125 C 33.011719 26.683594 33.769531 27.746094 35.003906 28.4375 C 35.847656 28.910156 36.773438 29.039063 37.734375 28.988281 C 39.214844 28.914063 40.457031 27.9375 40.84375 26.519531 C 41.066406 25.71875 41.019531 24.90625 40.898438 24.101563 C 40.679688 22.640625 40.441406 21.183594 40.210938 19.722656 C 40.078125 18.886719 39.941406 18.050781 39.8125 17.210938 C 39.789063 17.050781 39.726563 17 39.5625 17 C 38.847656 17.011719 38.132813 17.003906 37.421875 17.003906 C 37.355469 17.003906 37.289063 17.011719 37.1875 17.015625 C 37.261719 17.558594 37.324219 18.074219 37.390625 18.589844 C 37.605469 20.214844 37.828125 21.835938 38.03125 23.460938 C 38.09375 23.976563 38.140625 24.5 38.132813 25.019531 C 38.125 25.488281 37.925781 25.882813 37.425781 26.042969 C 36.820313 26.238281 36.203125 26.0625 35.839844 25.550781 C 35.664063 25.308594 35.519531 25.019531 35.457031 24.730469 C 35.339844 24.1875 35.277344 23.628906 35.21875 23.078125 C 35.007813 21.125 34.804688 19.171875 34.609375 17.21875 C 34.59375 17.046875 34.535156 17 34.367188 17 Z M 44.128906 17.003906 C 43.90625 17.015625 43.691406 17.042969 43.488281 17.089844 C 42.273438 17.363281 41.40625 18.21875 41.289063 19.371094 C 41.1875 20.347656 41.488281 21.21875 42.105469 21.984375 C 42.734375 22.761719 43.570313 23.21875 44.464844 23.609375 C 45.097656 23.882813 45.722656 24.179688 46.339844 24.492188 C 46.789063 24.71875 47.019531 25.121094 47.066406 25.621094 C 47.128906 26.246094 46.753906 26.890625 45.910156 26.628906 C 45.40625 26.476563 45.125 26.078125 44.929688 25.609375 C 44.84375 25.402344 44.789063 25.179688 44.71875 24.964844 L 41.980469 24.964844 C 41.980469 25.015625 41.96875 25.0625 41.980469 25.105469 C 42.035156 25.378906 42.078125 25.660156 42.15625 25.933594 C 42.589844 27.507813 43.53125 28.636719 45.058594 29.226563 C 45.261719 29.304688 45.355469 29.410156 45.421875 29.609375 C 46.703125 33.660156 47.988281 37.703125 49.277344 41.75 C 49.300781 41.824219 49.328125 41.898438 49.355469 41.96875 C 49.367188 41.96875 49.375 41.964844 49.386719 41.964844 C 49 37.757813 48.613281 33.550781 48.226563 29.347656 C 48.277344 29.320313 48.308594 29.304688 48.34375 29.289063 C 49.417969 28.847656 50 27.988281 50 26.816406 C 49.996094 24.949219 49.253906 23.492188 47.617188 22.5625 C 47.074219 22.257813 46.496094 22.015625 45.9375 21.734375 C 45.429688 21.480469 44.925781 21.222656 44.433594 20.949219 C 44.132813 20.785156 44.003906 20.484375 43.964844 20.15625 C 43.910156 19.746094 44.128906 19.4375 44.53125 19.359375 C 44.921875 19.277344 45.265625 19.390625 45.511719 19.710938 C 45.644531 19.882813 45.722656 20.097656 45.839844 20.285156 C 45.875 20.351563 45.953125 20.429688 46.015625 20.433594 C 46.84375 20.441406 47.675781 20.4375 48.535156 20.4375 C 48.484375 20.273438 48.449219 20.136719 48.40625 20.003906 C 47.679688 17.765625 45.699219 16.9375 44.128906 17.003906 Z M 6.796875 17.015625 C 6.632813 17.011719 6.546875 17.066406 6.472656 17.210938 C 5.75 18.5625 5.015625 19.910156 4.285156 21.261719 C 4.25 21.328125 4.210938 21.394531 4.148438 21.503906 C 3.945313 19.976563 3.753906 18.503906 3.558594 17.03125 L 0.773438 17.03125 C 0.78125 17.113281 0.785156 17.1875 0.796875 17.261719 C 1.230469 19.476563 1.667969 21.691406 2.09375 23.90625 C 2.136719 24.113281 2.175781 24.34375 2.136719 24.542969 C 1.988281 25.316406 1.800781 26.078125 1.648438 26.851563 C 1.453125 27.8125 1.21875 28.769531 1.109375 29.738281 C 0.886719 31.757813 0.734375 33.785156 0.550781 35.808594 C 0.367188 37.808594 0.183594 39.808594 0 41.808594 C 0.0078125 41.808594 0.015625 41.808594 0.0234375 41.8125 C 0.0546875 41.722656 0.0898438 41.640625 0.117188 41.550781 C 1.199219 38.140625 2.28125 34.730469 3.359375 31.320313 C 3.601563 30.550781 3.898438 29.789063 4.078125 29.003906 C 4.398438 27.550781 4.644531 26.074219 4.929688 24.609375 C 4.957031 24.453125 5.015625 24.292969 5.097656 24.15625 C 6.464844 21.855469 7.839844 19.5625 9.210938 17.265625 C 9.253906 17.195313 9.296875 17.121094 9.351563 17.015625 C 8.46875 17.015625 7.632813 17.023438 6.796875 17.015625 Z"/></svg>